<svg width="363" height="101" viewBox="0 0 363 101" fill="none" xmlns="http://www.w3.org/2000/svg">
<g clip-path="url(#clip0)">
<g filter="url(#filter0_d)">
<path d="M30.1535 73.7988C25.716 79.0873 17.8315 79.7771 12.5431 75.3395V75.3395C7.25466 70.902 6.56486 63.0176 11.0024 57.7291L31.893 32.8327C40.768 22.2558 56.5369 20.8762 67.1138 29.7513V29.7513L30.1535 73.7988Z" fill="#FFDA00"/>
<path d="M73.0496 26.6902C77.4872 21.4017 85.3716 20.7119 90.66 25.1495V25.1495C95.9485 29.587 96.6383 37.4714 92.2007 42.7599L71.3101 67.6563C62.4351 78.2332 46.6662 79.6128 36.0893 70.7377V70.7377L73.0496 26.6902Z" fill="#F8E87D"/>
<mask id="mask0" mask-type="alpha" maskUnits="userSpaceOnUse" x="23" y="20" width="58" height="61">
<ellipse cx="51.5044" cy="50.5667" rx="25.4855" ry="26.7393" transform="rotate(173.132 51.5044 50.5667)" fill="#B48A8A"/>
</mask>
<g mask="url(#mask0)">
<path d="M31.4206 72.0581C26.9831 77.3465 19.0986 78.0363 13.8102 73.5988V73.5988C8.52175 69.1613 7.83195 61.2769 12.2695 55.9884L33.1601 31.092C42.0351 20.5151 57.804 19.1355 68.3809 28.0106V28.0106L31.4206 72.0581Z" fill="#FFB633"/>
<path d="M72.8182 26.9495C77.2557 21.661 85.1402 20.9712 90.4286 25.4087V25.4087C95.717 29.8463 96.4068 37.7307 91.9693 43.0191L71.0787 67.9156C62.2037 78.4925 46.4348 79.8721 35.8579 70.997V70.997L72.8182 26.9495Z" fill="#F7D382"/>
</g>
</g>
</g>
<path d="M147.149 65.1199C143.725 65.1199 140.621 64.3839 137.837 62.9119C135.085 61.4079 132.909 59.3439 131.309 56.7199C129.741 54.0639 128.957 51.0719 128.957 47.7439C128.957 44.4159 129.741 41.4399 131.309 38.8159C132.909 36.1599 135.085 34.0959 137.837 32.6239C140.621 31.1199 143.741 30.3679 147.197 30.3679C150.109 30.3679 152.733 30.8799 155.069 31.9039C157.437 32.9279 159.421 34.3999 161.021 36.3199L156.029 40.9279C153.757 38.3039 150.941 36.9919 147.581 36.9919C145.501 36.9919 143.645 37.4559 142.013 38.3839C140.381 39.2799 139.101 40.5439 138.173 42.1759C137.277 43.8079 136.829 45.6639 136.829 47.7439C136.829 49.8239 137.277 51.6799 138.173 53.3119C139.101 54.9439 140.381 56.2239 142.013 57.1519C143.645 58.0479 145.501 58.4959 147.581 58.4959C150.941 58.4959 153.757 57.1679 156.029 54.5119L161.021 59.1199C159.421 61.0719 157.437 62.5599 155.069 63.5839C152.701 64.6079 150.061 65.1199 147.149 65.1199ZM187.744 57.3439H172.144L169.168 64.5439H161.2L176.176 30.9439H183.856L198.88 64.5439H190.72L187.744 57.3439ZM185.296 51.4399L179.968 38.5759L174.64 51.4399H185.296ZM223.774 64.5439L217.294 55.1839H216.91H210.142V64.5439H202.366V30.9439H216.91C219.886 30.9439 222.462 31.4399 224.638 32.4319C226.846 33.4239 228.542 34.8319 229.726 36.6559C230.91 38.4799 231.502 40.6399 231.502 43.1359C231.502 45.6319 230.894 47.7919 229.678 49.6159C228.494 51.4079 226.798 52.7839 224.59 53.7439L232.126 64.5439H223.774ZM223.63 43.1359C223.63 41.2479 223.022 39.8079 221.806 38.8159C220.59 37.7919 218.814 37.2799 216.478 37.2799H210.142V48.9919H216.478C218.814 48.9919 220.59 48.4799 221.806 47.4559C223.022 46.4319 223.63 44.9919 223.63 43.1359ZM263.679 58.3039V64.5439H237.663V30.9439H263.055V37.1839H245.391V44.4799H260.991V50.5279H245.391V58.3039H263.679ZM309.476 58.3039V64.5439H283.46V30.9439H308.852V37.1839H291.188V44.4799H306.788V50.5279H291.188V58.3039H309.476ZM337.071 64.5439L330.591 55.1839H330.207H323.439V64.5439H315.663V30.9439H330.207C333.183 30.9439 335.759 31.4399 337.935 32.4319C340.143 33.4239 341.839 34.8319 343.023 36.6559C344.207 38.4799 344.799 40.6399 344.799 43.1359C344.799 45.6319 344.191 47.7919 342.975 49.6159C341.791 51.4079 340.095 52.7839 337.887 53.7439L345.423 64.5439H337.071ZM336.927 43.1359C336.927 41.2479 336.319 39.8079 335.103 38.8159C333.887 37.7919 332.111 37.2799 329.775 37.2799H323.439V48.9919H329.775C332.111 48.9919 333.887 48.4799 335.103 47.4559C336.319 46.4319 336.927 44.9919 336.927 43.1359Z" fill="#2E2E2E"/>
<line x1="104.502" y1="78.6107" x2="104.502" y2="20.6107" stroke="#374B73" stroke-width="3"/>
<defs>
<filter id="filter0_d" x="0.967285" y="13.6816" width="101.268" height="77.1258" filterUnits="userSpaceOnUse" color-interpolation-filters="sRGB">
<feFlood flood-opacity="0" result="BackgroundImageFix"/>
<feColorMatrix in="SourceAlpha" type="matrix" values="0 0 0 0 0 0 0 0 0 0 0 0 0 0 0 0 0 0 127 0"/>
<feOffset dy="2"/>
<feGaussianBlur stdDeviation="1"/>
<feColorMatrix type="matrix" values="0 0 0 0 0.968627 0 0 0 0 0.713725 0 0 0 0 0.137255 0 0 0 0.49 0"/>
<feBlend mode="normal" in2="BackgroundImageFix" result="effect1_dropShadow"/>
<feBlend mode="normal" in="SourceGraphic" in2="effect1_dropShadow" result="shape"/>
</filter>
<clipPath id="clip0">
<rect width="100" height="100" fill="white" transform="translate(100.004 100.067) rotate(-180)"/>
</clipPath>
</defs>
</svg>
